<svg width="374" height="294" viewBox="0 0 374 294" fill="none" xmlns="http://www.w3.org/2000/svg">
<path d="M195.667 0C212.419 0.000176879 226 13.5806 226 30.333C226 34.6285 224.75 38.6323 222.594 42H287C317.376 42 342 66.6243 342 97H359C367.284 97 374 103.716 374 112V114C374 127.807 362.807 139 349 139H342V222C342 241.33 326.33 257 307 257H278.53L282.141 263.253C287.663 272.819 284.386 285.05 274.82 290.573C265.254 296.096 253.023 292.819 247.5 283.253L232.343 257H67C47.67 257 32 241.33 32 222V139H25C11.1929 139 0 127.807 0 114V112C1.9329e-07 103.716 6.71573 97 15 97H32C32 66.6243 56.6243 42 87 42H150.406C148.25 38.6323 147 34.6285 147 30.333C147 13.5806 160.581 0.000176879 177.333 0H195.667ZM167.75 96.8994C163.083 94.2053 157.25 97.5734 157.25 102.962V180.038C157.25 185.427 163.083 188.795 167.75 186.101L198.484 168.355L260.49 275.753C261.871 278.144 264.929 278.964 267.32 277.583C269.712 276.202 270.531 273.144 269.15 270.753L207.145 163.355L234.5 147.562C239.167 144.868 239.167 138.132 234.5 135.438L167.75 96.8994ZM161.942 138.855C165.53 136.785 170.116 138.013 172.188 141.601L184.688 163.251C186.758 166.838 185.529 171.425 181.942 173.496C178.355 175.567 173.768 174.338 171.697 170.751L159.197 149.101C157.126 145.513 158.355 140.927 161.942 138.855ZM179.263 128.855C182.85 126.784 187.437 128.013 189.508 131.601L202.008 153.251C204.079 156.838 202.85 161.425 199.263 163.496C195.676 165.567 191.089 164.338 189.018 160.751L176.518 139.101C174.447 135.513 175.676 130.927 179.263 128.855ZM196.583 118.855C200.17 116.784 204.757 118.013 206.828 121.601L219.328 143.251C221.399 146.838 220.17 151.425 216.583 153.496C212.996 155.567 208.409 154.338 206.338 150.751L193.838 129.101C191.767 125.513 192.996 120.927 196.583 118.855Z" fill="url(#paint0_linear_0_1)" fill-opacity="0.6"/>
<g filter="url(#filter0_f_0_1)">
<path d="M152 102.162V181.837C152 191.074 162 196.848 170 192.229L197.37 176.426L256.16 278.253C258.922 283.036 265.037 284.674 269.82 281.913C274.603 279.152 276.242 273.036 273.48 268.253L214.69 166.426L239 152.392C247 147.773 247 136.226 239 131.607L187.718 102H359C364.523 102 369 106.477 369 112V114C369 125.046 360.046 134 349 134H337V222C337 238.569 323.569 252 307 252H269.87L277.811 265.753C281.953 272.927 279.495 282.101 272.32 286.243C265.146 290.385 255.972 287.927 251.83 280.753L235.229 252H67C50.4315 252 37 238.569 37 222V134H25C13.9543 134 5 125.046 5 114V112C5 106.477 9.47715 102 15 102H152.003C152.002 102.054 152 102.108 152 102.162ZM164.442 143.185C165.638 142.495 167.167 142.904 167.857 144.1L180.357 165.751C181.047 166.947 180.638 168.476 179.442 169.166C178.247 169.856 176.718 169.446 176.027 168.251L163.527 146.6C162.837 145.404 163.247 143.875 164.442 143.185ZM181.763 133.185C182.958 132.495 184.487 132.904 185.178 134.1L197.678 155.751C198.368 156.947 197.958 158.476 196.763 159.166C195.567 159.856 194.038 159.446 193.348 158.251L180.848 136.6C180.158 135.404 180.567 133.875 181.763 133.185ZM199.083 123.185C200.279 122.495 201.808 122.904 202.498 124.1L214.998 145.751C215.688 146.947 215.278 148.476 214.083 149.166C212.887 149.856 211.358 149.446 210.668 148.251L198.168 126.6C197.478 125.404 197.887 123.875 199.083 123.185ZM195.8 5C209.717 5 221 16.2826 221 30.2002C221 39.4784 213.478 46.9999 204.2 47H287C314.614 47 337 69.3858 337 97H179.058L170 91.7705C163.632 88.0943 155.998 91.0022 153.147 97H37C37 69.3858 59.3858 47 87 47H168.8C159.522 46.9999 152 39.4784 152 30.2002C152 16.2826 163.283 5 177.2 5H195.8Z" fill="url(#paint1_linear_0_1)" fill-opacity="0.9"/>
</g>
<defs>
<filter id="filter0_f_0_1" x="0" y="0" width="374" height="293.255" filterUnits="userSpaceOnUse" color-interpolation-filters="sRGB">
<feFlood flood-opacity="0" result="BackgroundImageFix"/>
<feBlend mode="normal" in="SourceGraphic" in2="BackgroundImageFix" result="shape"/>
<feGaussianBlur stdDeviation="2.5" result="effect1_foregroundBlur_0_1"/>
</filter>
<linearGradient id="paint0_linear_0_1" x1="73.978" y1="74.7981" x2="236.161" y2="261.76" gradientUnits="userSpaceOnUse">
<stop stop-color="#115F9E"/>
<stop offset="1" stop-color="#33A88D"/>
</linearGradient>
<linearGradient id="paint1_linear_0_1" x1="77" y1="77.2473" x2="233.48" y2="259.01" gradientUnits="userSpaceOnUse">
<stop stop-color="#115F9E"/>
<stop offset="1" stop-color="#33A88D"/>
</linearGradient>
</defs>
</svg>
